<svg t="1773219356601" class="icon" viewBox="0 0 3200 1024" version="1.1" xmlns="http://www.w3.org/2000/svg" p-id="12037" width="48" height="48"><path d="M2278.826667 202.026667c60.586667 80.810667 96.938667 185.856 96.938666 294.954666 0 109.056-36.352 214.144-96.981333 294.954667a495.274667 495.274667 0 0 1-400 202.026667c-117.162667 0-226.261333-40.405333-311.125333-109.098667 52.565333-64.64 92.928-141.44 113.152-222.250667 48.469333 56.576 117.162667 96.981333 197.973333 96.981334 141.44 0 254.549333-117.162667 254.549333-258.56 0-141.44-113.109333-258.602667-254.549333-258.602667-80.810667 0-153.514667 36.352-197.973333 96.981333-24.234667-80.810667-60.586667-157.610667-113.152-222.250666C1652.565333 40.405333 1761.621333 0 1882.88 0c161.621333 0 307.072 80.810667 395.946667 202.026667zM234.282667 670.72c0 28.288-24.234667 52.48-52.48 52.48H0v238.421333h238.378667a234.496 234.496 0 0 0 234.325333-234.325333V28.288H234.325333V670.72zM2917.205333 28.288l-157.610666 246.442667L2602.026667 28.288h-282.837334l299.008 464.64-299.008 464.64h282.837334l157.568-246.442667 157.568 246.442667H3200l-299.008-464.64L3200 28.288h-282.837333zM1494.912 783.786667l28.288 145.493333-149.504-28.330667c-80.810667 56.576-181.802667 92.928-286.890667 92.928a496.64 496.64 0 0 1-496.938666-496.938666C589.909333 222.208 816.170667 0 1086.890667 0A496.64 496.64 0 0 1 1583.786667 496.981333c0 105.045333-32.298667 206.08-88.874667 286.848z m-408.064-28.288c141.397333 0 258.56-117.162667 258.56-258.56 0-141.44-117.162667-258.56-258.56-258.56-141.44 0-258.602667 117.12-258.602667 258.56 4.053333 141.397333 117.162667 258.56 258.56 258.56z m0-331.306667c-40.448 0-72.746667 32.341333-72.746667 72.746667 0 40.405333 32.341333 72.704 72.746667 72.704 40.405333 0 72.704-32.298667 72.704-72.704s-32.341333-72.746667-72.704-72.746667z" fill="#000000" p-id="12038"></path></svg>