<svg t="1773219303407" class="icon" viewBox="0 0 1024 1024" version="1.1" xmlns="http://www.w3.org/2000/svg" p-id="9872" width="48" height="48"><path d="M97.46432 285.7472c0-103.9872 84.3008-188.28288 188.288-188.28288h452.49536c103.9872 0 188.288 84.3008 188.288 188.288v452.49536c0 103.9872-84.3008 188.288-188.288 188.288H285.75232c-103.9872 0-188.288-84.3008-188.288-188.288V285.75232z" fill="#FFE459" p-id="9873"></path><path d="M599.58784 210.92352c-85.75488-15.49824-177.3824-2.59072-235.25888 14.21312a20.7616 20.7616 0 1 1-11.57632-39.87456c62.2336-18.06848 160.5376-32.128 254.21824-15.19616 94.24896 17.03424 186.43456 66.18624 228.92032 176.45568l0.256 0.6656 0.21504 0.68608c19.67104 63.8464 35.21024 164.63872 17.36704 260.46464-17.9968 96.64-70.6048 190.22848-188.27776 232.46848l-0.58368 0.20992-0.59392 0.17408c-69.6832 20.42368-177.90976 34.64192-276.31616 9.67168-49.4848-12.55424-97.18272-35.20512-135.9872-72.6528-38.81984-37.46816-67.70688-88.77568-81.05984-156.88704-10.3424-39.70048-18.44736-147.25632 21.1968-286.9504a20.7616 20.7616 0 1 1 39.94112 11.33568c-38.22592 134.71232-28.99968 235.00288-20.8384 265.63072l0.18944 0.6912 0.13312 0.69632c11.81184 60.81024 36.97152 104.43264 69.2736 135.60832 32.4608 31.32416 73.15968 51.06688 117.36064 62.2848 88.69888 22.5024 188.66688 9.90208 253.83424-9.09824 99.52256-35.968 144.79872-114.2784 160.90624-200.7808 16.2304-87.1424 2.18112-180.54656-16.01536-239.9488-35.73248-91.99616-112.32256-134.5024-197.30432-149.8624z" fill="#FB5906" p-id="9874"></path><path d="M311.92064 375.66976c-75.3152-5.63712-42.02496-81.13664-27.07456-103.00416 1.65888-2.42176 3.00544-5.06368 3.65056-7.92064a21.74464 21.74464 0 0 0-4.9664-19.2512l-19.62496-22.0416c-78.73536-63.5904 3.39968-60.01664 48.01536-103.936 15.03232 43.53024 0.46592 71.10656-15.65184 83.77344-5.4528 4.28544-7.2704 14.06976-1.90976 18.46272l21.21728 17.3568c92.8256 82.11968 29.184 139.02336-3.65568 136.56064z" fill="#0ECEFD" p-id="9875"></path><path d="M363.89888 400.95744c0-37.86752 30.69952-68.56704 68.56704-68.56704 58.28608 0 89.99424 68.11136 52.46976 112.71168l-23.7056 28.17536a53.56544 53.56544 0 0 0 0 68.97152l23.7056 28.17536c37.52448 44.5952 5.81632 112.71168-52.46976 112.71168-37.86752 0-68.56704-30.69952-68.56704-68.56704v-213.6064z" fill="#FB5906" p-id="9876"></path><path d="M696.50944 353.2288c-29.63456-28.53888-76.79488-27.648-105.33376 1.98656L496.13312 453.90848a74.27072 74.27072 0 0 0-20.79744 54.00064 74.27584 74.27584 0 0 0 20.79744 54.00064l95.04256 98.69312c28.53888 29.63456 75.6992 30.52544 105.33376 1.98656s30.52544-75.6992 1.98656-105.33376l-47.52384-49.34656 47.52384-49.34656c28.53888-29.63456 27.648-76.8-1.98656-105.33376z" fill="#FB5906" p-id="9877"></path></svg>