<svg t="1773219259462" class="icon" viewBox="0 0 1153 1024" version="1.1" xmlns="http://www.w3.org/2000/svg" p-id="6067" width="48" height="48"><path d="M822.459675 46.097636h-467.057846c-128.927426 0-233.528923 104.601497-233.528922 233.528923v467.057845c0 128.927426 104.601497 233.528923 233.528922 233.528923h467.057846c128.927426 0 233.528923-104.601497 233.528922-233.528923v-467.057845c0-128.927426-104.723126-233.528923-233.528922-233.528923z" fill="#E82202" p-id="6068"></path><path d="M889.59924 592.579641c-1.824445 25.177337-7.419408 50.476304-15.933484 74.680604-22.379855 58.868749-62.639268 109.345053-115.791424 142.914835-39.286376 24.325929-82.221642 40.137784-127.954389 44.88134-30.772301 4.621927-62.639268 4.621927-94.384606 0-63.490676-11.189928-123.332462-42.935265-168.092173-89.64105-79.42416-81.248604-112.993942-197.040029-87.816605-308.209526 23.352892-105.574534 96.209051-192.418102 195.215584-233.528923 13.987409-5.594964 29.920893-4.621927 42.935265 1.824445 11.189928 8.392446 17.757928 22.379855 15.933484 36.367264s-11.189928 27.123411-24.325929 31.745338C424.487469 326.332344 363.794275 403.810429 351.63131 494.424516c-5.594964 42.083858-0.973037 84.046086 13.98741 123.332462 21.528448 57.895712 62.639268 105.574534 115.791424 134.52239 32.718375 16.784891 69.08564 26.150374 105.574534 25.177337 29.920893 0 59.841786-5.594964 88.789642-15.933484 48.530229-17.757928 89.64105-52.300748 113.966979-99.006533 6.568001-11.189928 11.189928-22.379855 14.960447-34.542819 10.21689-35.515857 10.21689-72.856159 0-108.372016-9.365483-28.947856-26.150374-56.071267-49.503266-75.653641-10.21689-9.365483-20.55541-16.784891-32.718375-23.352892-10.21689-5.594964-21.528448-10.21689-32.718376-12.162965 7.419408 30.772301 15.933484 62.639268 24.32593 93.411569l3.770519 22.379856c1.824445 65.43675-42.935265 122.359425-106.547571 134.522389-31.745338 6.568001-65.43675 0-92.438532-17.757928-25.177337-16.784891-44.88134-42.083858-55.09823-71.883122-5.594964-16.784891-8.392446-33.569783-9.365483-51.327711-1.824445-38.313339 8.392446-75.653641 28.947856-107.398978 26.150374-36.488894 64.463713-63.490676 107.398979-74.680604l-9.365483-36.488894c-7.419408-26.150374-5.594964-53.273785 5.594964-77.478085 6.568001-13.987409 15.933484-25.177337 27.974818-35.515857 12.162965-11.189928 26.150374-20.55541 41.110821-25.177337 19.582373-5.594964 40.137784-5.594964 59.841787-0.973037 22.379855 5.594964 42.935265 15.933484 60.693194 29.920893 6.568001 4.621927 12.162965 11.189928 15.933483 18.730966 4.621927 12.162965 3.770519 25.177337-3.770519 36.488894-11.189928 17.757928-34.54282 23.352892-53.273785 12.162965-4.621927-2.797482-7.419408-6.568001-11.189928-9.365483-11.189928-8.392446-25.177337-12.162965-38.313339-13.136002-9.365483 0.973037-18.730966 5.594964-24.325929 13.136002-6.568001 6.568001-9.365483 15.933484-7.419409 25.177337l13.98741 54.125193c34.54282 0.973037 68.234232 11.189928 97.182088 28.947856 28.947856 17.757928 54.125193 40.137784 74.680603 67.261195 17.757928 23.352892 30.772301 49.503266 38.313339 77.478085 10.33852 30.772301 13.136002 60.693194 11.189928 91.587124z" fill="#FFFFFF" p-id="6069"></path><path d="M566.429267 443.096805c-11.189928 12.162965-18.730966 27.974819-21.528447 44.88134-2.797482 14.960447-2.797482 30.772301 0 45.732747 2.797482 16.784891 11.189928 32.718375 24.325929 42.935266 11.189928 8.392446 24.325929 10.21689 37.340302 7.419408 23.352892-4.621927 40.137784-26.150374 42.083858-51.327711-0.973037-6.568001-1.824445-12.162965-3.770519-18.730966l-26.150375-103.750089c-20.55541 5.716593-38.313339 16.906521-52.300748 32.840005z m0 0" fill="#E82202" p-id="6070"></path></svg>